<?xml version="1.0" encoding="UTF-8"?>
<!-- Created with Inkscape (http://www.inkscape.org/) -->
<svg width="284.3mm" height="240.17mm" version="1.1" viewBox="0 0 284.3 240.17" xmlns="http://www.w3.org/2000/svg" xmlns:cc="http://creativecommons.org/ns#" xmlns:dc="http://purl.org/dc/elements/1.1/" xmlns:rdf="http://www.w3.org/1999/02/22-rdf-syntax-ns#">
 <metadata>
  <rdf:RDF>
   <cc:Work rdf:about="">
    <dc:format>image/svg+xml</dc:format>
    <dc:type rdf:resource="http://purl.org/dc/dcmitype/StillImage"/>
    <dc:title/>
   </cc:Work>
  </rdf:RDF>
 </metadata>
 <g transform="translate(181.5 -14.51)">
  <path d="m-118.2 102.84 87.197 141.77 79.792-146.46" fill="none" stroke="#e535ab" stroke-linecap="round" stroke-width="7.907"/>
  <g fill="#c4f93a">
   <path d="m-138.82 157.35s-6.5054-9.0359-15.836-1.4342c-9.3305 7.6018-5.8795 14.239 6.5774 25.169 15.478 13.58 65.587 56.663 70.913 59.298 5.3263 2.6352 13.113 8.7406 18.691 4.08 5.5781-4.6605 3.1624-19.583 3.1624-19.583 0.18826-8.2246-10.582-55.457-10.582-55.457s38.065 25.36 53.545 25.99c7.8286 0.78708 17.961 3.2122 21.112-5.1284 3.1508-8.3407-7.581-17.135-12.369-23.421-6.8847-9.0372-24.516-39.505-28.042-46.495-3.3677-6.6758-12.349-27.533-13.934-35.81-1.5842-8.2777-8.698-9.625-13.634-8.9295-4.9357 0.69552-11.842 6.9739-9.3787 16.005 2.4632 9.0311 9.4807 27.185 14.861 38.834 5.3802 11.649 17.193 28.928 17.193 28.928s-16.858-9.5823-23.515-15.692c-10.129-8.5118-22.27-22.076-30.828-15.884-8.5574 6.1919-1.1873 29.535 0.87562 41.753 2.0629 12.218 6.868 36.733 6.868 36.733s-21.172-16.643-29.506-24.808c-7.5235-7.3704-26.174-24.148-26.174-24.148z"/>
   <path d="m19.109 115.24c-24.05 14.002-18.636 51.9-7.7451 71.48 7.187 12.921 29.887 37.871 55.47 22.259 25.913-15.997 21.006-53.439 8.3036-73.358-12.703-19.918-31.978-34.384-56.028-20.381zm12.842 19.243c10.513-6.307 24.101 15.46 24.101 15.46 6.1511 12.46 7.7848 31.071-2.0666 38.04-9.8514 6.9689-23.244-14.914-25.151-19.859s-7.3966-27.334 3.1167-33.641z"/>
   <path d="m-49.399 30.699c-15.67 22.998 5.5441 54.865 23.809 67.842 12.053 8.5636 43.288 21.298 59.647-3.8128 16.492-25.601-4.0685-57.275-24.114-69.777-20.045-12.502-43.672-17.25-59.342 5.748zm19.881 11.832c6.7699-10.221 28.41 3.5667 28.41 3.5667 10.919 8.5939 20.412 24.685 14.525 35.218-5.8874 10.534-27.401-3.4434-31.253-7.084-3.852-3.6407-18.452-21.48-11.682-31.701z"/>
  </g>
  <path d="m48.789 98.154 42.493 40.226v69.663l-42.493 34.968-167.35-0.94735-42.349-34.021v-69.663l42.349-40.226" fill="none" stroke="#e535ab" stroke-linecap="round" stroke-opacity=".99507" stroke-width="7.907"/>
  <path d="m-31.538 103.36-87.025 138.71 167.35 0.94735z" fill="none" stroke="#e535ab" stroke-linecap="round" stroke-opacity=".66275" stroke-width="7.907"/>
  <g fill="#e535ab">
   <circle cx="-119.59" cy="102.72" r="12.095"/>
   <circle cx="47.927" cy="102.72" r="12.095"/>
   <circle cx="-119.59" cy="241.83" r="12.095"/>
   <circle cx="47.927" cy="241.83" r="12.095"/>
   <circle cx="-31.183" cy="102.63" r="12.095"/>
   <circle cx="-31.183" cy="242.58" r="12.095"/>
   <circle cx="-160.44" cy="138.79" r="12.095"/>
   <circle cx="90.7" cy="138.79" r="12.095"/>
   <circle cx="-160.44" cy="205.8" r="12.095"/>
   <circle cx="90.7" cy="205.8" r="12.095"/>
  </g>
  <path d="m-118.2 102.84 160.5-0.92459" fill="none" stroke="#e535ab" stroke-dasharray="6.92875785, 6.92875785" stroke-linecap="round" stroke-opacity=".66275" stroke-width="3.4644"/>
  <path d="m-29.421 104.41-2.0416-6.448s1.1465-0.43325 2.2006 2.8219c1.0541 3.2551-0.15904 3.6261-0.15904 3.6261s-143.58 47.418-146.12 46.875c-2.5365-0.5427-3.9565-7.3487-3.9565-7.3487l127.66-36.906-128.28 34.997s-2.4462-5.7122-0.84415-7.5794c1.6021-1.8672 149.49-36.487 149.49-36.487" fill="#707070"/>
 </g>
</svg>
