<?xml version="1.0" encoding="UTF-8" standalone="no"?>
<!-- Created with Inkscape (http://www.inkscape.org/) -->

<svg
   width="177.27901mm"
   height="177.17757mm"
   viewBox="0 0 177.279 177.17756"
   version="1.1"
   id="svg5"
   inkscape:export-filename="logo.svg"
   inkscape:export-xdpi="96.050529"
   inkscape:export-ydpi="96.050529"
   xmlns:inkscape="http://www.inkscape.org/namespaces/inkscape"
   xmlns:sodipodi="http://sodipodi.sourceforge.net/DTD/sodipodi-0.dtd"
   xmlns:xlink="http://www.w3.org/1999/xlink"
   xmlns="http://www.w3.org/2000/svg"
   xmlns:svg="http://www.w3.org/2000/svg">
  <sodipodi:namedview
     id="namedview7"
     pagecolor="#ffffff"
     bordercolor="#000000"
     borderopacity="0.25"
     inkscape:showpageshadow="2"
     inkscape:pageopacity="0.0"
     inkscape:pagecheckerboard="0"
     inkscape:deskcolor="#d1d1d1"
     inkscape:document-units="mm"
     showgrid="false" />
  <defs
     id="defs2">
    <linearGradient
       inkscape:collect="always"
       id="linearGradient4987">
      <stop
         style="stop-color:#457b9d;stop-opacity:1;"
         offset="0"
         id="stop4983" />
      <stop
         style="stop-color:#457b9d;stop-opacity:0;"
         offset="1"
         id="stop4985" />
    </linearGradient>
    <linearGradient
       inkscape:collect="always"
       id="linearGradient4540">
      <stop
         style="stop-color:#f1faee;stop-opacity:1;"
         offset="0"
         id="stop4538" />
      <stop
         style="stop-color:#457b9d;stop-opacity:1;"
         offset="1"
         id="stop4536" />
    </linearGradient>
    <linearGradient
       inkscape:collect="always"
       xlink:href="#linearGradient4540"
       id="linearGradient4542"
       x1="116.47899"
       y1="158.99059"
       x2="104.81323"
       y2="116.93261"
       gradientUnits="userSpaceOnUse" />
    <linearGradient
       inkscape:collect="always"
       xlink:href="#linearGradient4987"
       id="linearGradient4989"
       x1="122.78715"
       y1="168.87038"
       x2="101.35434"
       y2="93.812256"
       gradientUnits="userSpaceOnUse" />
    <linearGradient
       inkscape:collect="always"
       xlink:href="#linearGradient4987"
       id="linearGradient5864"
       gradientUnits="userSpaceOnUse"
       x1="122.78715"
       y1="168.87038"
       x2="101.35434"
       y2="93.812256" />
    <linearGradient
       inkscape:collect="always"
       xlink:href="#linearGradient4987"
       id="linearGradient5866"
       gradientUnits="userSpaceOnUse"
       x1="122.78715"
       y1="168.87038"
       x2="101.35434"
       y2="93.812256" />
    <linearGradient
       inkscape:collect="always"
       xlink:href="#linearGradient4540"
       id="linearGradient5868"
       gradientUnits="userSpaceOnUse"
       x1="116.47899"
       y1="158.99059"
       x2="104.81323"
       y2="116.93261" />
    <linearGradient
       inkscape:collect="always"
       xlink:href="#linearGradient4540"
       id="linearGradient5870"
       gradientUnits="userSpaceOnUse"
       x1="116.47899"
       y1="158.99059"
       x2="104.81323"
       y2="116.93261" />
  </defs>
  <g
     inkscape:label="Layer 1"
     inkscape:groupmode="layer"
     id="layer1"
     transform="translate(-24.196996,-62.039592)">
    <path
       class="ghost-bg"
       style="display:none;fill:#e63946;fill-opacity:1;stroke:#e63946;stroke-width:0.298979;stroke-linecap:round;stroke-opacity:1"
       d="m 92.423219,64.549439 c -36.73501,10.57719 -58.073058,51.510361 -47.085986,86.628681 10.987072,35.11832 38.813875,61.19825 55.491517,87.4188 l 24.57751,-60.42174 52.85073,38.1278 c 0,0 7.81634,-71.22793 0.61813,-103.57447 -7.16614,-32.202429 -49.71686,-58.756107 -86.4519,-48.17903 z"
       id="ghost-bg"
       inkscape:label="Background" />
    <path
       class="ghost-body"
       style="display:inline;fill:#e63946;fill-opacity:1;stroke:none;stroke-width:0.298979;stroke-linecap:round;stroke-opacity:1"
       d="m 92.423219,64.549439 c -36.73501,10.57719 -58.073058,51.510361 -47.085986,86.628681 10.987072,35.11832 38.813875,61.19825 55.491517,87.4188 l 24.57751,-60.42174 52.85073,38.1278 c 0,0 7.81634,-71.22793 0.61813,-103.57447 -7.16614,-32.202429 -49.71686,-58.756107 -86.4519,-48.17903 z m -26.40159,53.160201 c 14.03161,-4.03995 28.681541,4.0597 32.721818,18.09121 4.040283,14.03172 -4.059352,28.68198 -18.09106,32.72232 -14.031917,4.04034 -28.682348,-4.05958 -32.72246,-18.09156 -4.04001,-14.0318 4.059909,-28.68191 18.091702,-32.72197 z M 143.44987,95.415697 c 14.03172,-4.040284 28.68198,4.059358 32.72231,18.091063 4.04034,14.03192 -4.05957,28.68235 -18.09155,32.72246 -14.03181,4.04001 -28.68192,-4.05991 -32.72197,-18.0917 -4.03995,-14.03161 4.05969,-28.681545 18.09121,-32.721823 z"
       id="ghost-body"
       inkscape:label="Body" />
    <g
       class="ghost-eyes"
       id="ghost-eyes"
       inkscape:label="Eyes"
       style="display:inline;fill:#457b9d;fill-opacity:1;stroke:url(#linearGradient4989);stroke-opacity:1">
      <path
         class="ghost-left-eye"
         d="m 66.021629,117.70964 c 14.03161,-4.03995 28.681541,4.0597 32.721818,18.09121 4.040283,14.03172 -4.059352,28.68198 -18.09106,32.72232 -14.031917,4.04034 -28.682348,-4.05958 -32.72246,-18.09156 -4.04001,-14.0318 4.059909,-28.68191 18.091702,-32.72197 z"
         id="ghost-left-eye"
         inkscape:label="Left Eye" />
      <path
         class="ghost-right-eye"
         d="m 143.44987,95.415697 c 14.03172,-4.040284 28.68198,4.059358 32.72231,18.091063 4.04034,14.03192 -4.05957,28.68235 -18.09155,32.72246 -14.03181,4.04001 -28.68192,-4.05991 -32.72197,-18.0917 -4.03995,-14.03161 4.05969,-28.681545 18.09121,-32.721823 z"
         id="ghost-right-eye"
         inkscape:label="Right Eye" />
    </g>
    <g
       class="ghost-inner-eyes"
       id="ghost-inner-eyes"
       inkscape:label="Inner Eyes"
       style="display:none;fill:url(#linearGradient4542);fill-opacity:1;stroke:none;stroke-opacity:1"
       transform="translate(2.6458334,7.4083337)">
      <path
         class="ghost-inner-right-eye"
         d="m 146.24401,105.1196 c 8.67241,-2.49712 17.7271,2.50892 20.22426,11.18131 2.49716,8.67253 -2.50905,17.72733 -11.18161,20.22435 -8.67246,2.49696 -17.72707,-2.50925 -20.22404,-11.1817 -2.49692,-8.67234 2.50911,-17.72684 11.18139,-20.22396 z"
         id="ghost-inner-right-eye"
         inkscape:label="Inner Right Eye" />
      <path
         class="ghost-inner-left-eye"
         d="m 68.815627,127.41373 c 8.672267,-2.4969 17.72669,2.5091 20.223792,11.18131 2.497105,8.67233 -2.508892,17.72696 -11.18122,20.2241 -8.672457,2.49714 -17.727188,-2.50903 -20.224189,-11.18153 -2.496937,-8.67238 2.509236,-17.72691 11.181617,-20.22388 z"
         id="ghost-inner-left-eyes"
         inkscape:label="Inner Left Eye" />
    </g>
  </g>
</svg>
